<?xml version="1.0" encoding="UTF-8"?>
<!-- Generated by Pixelmator Pro 3.7 -->
<svg width="6657" height="1230" viewBox="0 0 6657 1230" xmlns="http://www.w3.org/2000/svg">
    <path id="Shape" fill="#ffffff" fill-rule="evenodd" stroke="none" d="M 2839.199219 274.481812 C 2947.458252 547.706726 2988.276367 650.68573 2999.750732 679.5979 L 3020.613281 732.165527 L 3095.344971 543.59021 C 3136.44751 439.87384 3177.304443 336.782532 3186.138672 314.498413 L 3202.200439 273.981812 L 3280.100586 273.981812 C 3322.945557 273.981812 3358.000488 274.150757 3358.000488 274.357056 C 3358.000488 274.563599 3268.766357 489.555237 3159.702393 752.11615 L 2961.404053 1229.5 L 2876.587891 1229.755615 C 2808.843262 1229.959839 2791.875488 1229.758545 2792.288086 1228.755615 C 2792.572266 1228.065063 2808.817627 1189.585083 2828.388916 1143.244629 C 2847.959961 1096.904053 2878.441895 1024.702393 2896.125977 982.796448 C 2928.279297 906.603699 2928.279297 906.603699 2926.77002 902.548706 C 2925.939941 900.31842 2866.924072 758.415588 2795.623779 587.208923 C 2724.323975 416.002563 2665.987305 275.484741 2665.987305 274.947632 C 2665.987305 274.317261 2696.718262 274.061401 2752.593262 274.226196 L 2839.199219 274.481812 Z M 1600.571777 932.856812 C 1592.264038 932.78125 1581.191772 932.353088 1575.966553 931.905457 C 1570.741455 931.457947 1561.29126 930.36377 1554.966187 929.474243 C 1548.641113 928.584717 1538.290771 926.747314 1531.965698 925.391052 C 1525.640625 924.034668 1515.740356 921.563232 1509.965332 919.898621 C 1504.190308 918.234009 1495.415039 915.486694 1490.464966 913.793335 C 1485.514893 912.099915 1474.714722 907.838745 1466.464478 904.324097 C 1458.214355 900.80957 1445.614014 894.733765 1438.463989 890.822388 C 1431.313965 886.911072 1421.188721 881.004089 1415.963501 877.695679 C 1410.738403 874.38739 1401.288208 867.85907 1394.963135 863.188477 C 1388.638062 858.517944 1378.962891 850.826782 1373.462769 846.097046 C 1367.962646 841.36731 1359.164063 833.221436 1353.910645 827.994873 C 1348.657104 822.768372 1340.8396 814.442017 1336.53833 809.492004 C 1332.237183 804.541931 1324.896484 795.408447 1320.225586 789.195435 C 1315.554932 782.982422 1308.196167 772.252014 1303.873047 765.350037 C 1299.549805 758.448059 1293.001831 746.88092 1289.321777 739.645691 C 1285.641724 732.410156 1280.647705 721.765259 1278.223877 715.990234 C 1275.799927 710.21521 1272.031616 700.157166 1269.849487 693.639221 C 1267.667358 687.121277 1264.544434 676.321228 1262.909424 669.638733 C 1261.274536 662.956482 1259.04895 652.313965 1257.963745 645.988892 C 1256.87854 639.663818 1255.459595 627.963623 1254.810669 619.988403 C 1254.084961 611.069031 1253.868408 597.790222 1254.248047 585.487732 C 1254.587524 574.487488 1255.561401 560.762146 1256.412231 554.987122 C 1257.263062 549.212097 1258.891357 539.856506 1260.03064 534.197205 C 1261.169922 528.537903 1263.611206 518.614136 1265.455688 512.144775 C 1267.300171 505.675415 1270.951416 494.565308 1273.56958 487.455811 C 1276.187866 480.346558 1282.259766 466.644653 1287.062988 457.007263 C 1291.866211 447.370117 1299.003296 434.344238 1302.923218 428.060913 C 1306.843018 421.777832 1314.468262 410.752686 1319.868042 403.560425 C 1325.267944 396.368408 1333.501709 386.209045 1338.165405 380.983826 C 1342.829102 375.758606 1352.285156 366.042114 1359.178955 359.391357 C 1366.072876 352.740601 1376.606934 343.382263 1382.588135 338.595337 C 1388.569458 333.80835 1399.763306 325.660278 1407.463379 320.488525 C 1415.163452 315.317017 1426.413696 308.284668 1432.463867 304.861267 C 1438.514038 301.437866 1448.189209 296.419006 1453.964233 293.708252 C 1459.739258 290.997498 1469.287598 286.827271 1475.182495 284.441223 C 1481.077393 282.055176 1490.752563 278.535095 1496.682861 276.618774 C 1502.613159 274.702515 1512.865234 271.78009 1519.465576 270.124756 C 1526.065796 268.469238 1536.190918 266.219177 1541.965942 265.124451 C 1547.740967 264.029907 1557.866211 262.537231 1564.466431 261.807983 C 1571.563965 261.023315 1587.906006 260.481506 1604.467163 260.481506 C 1628.266724 260.481506 1634.874268 260.823792 1648.507813 262.763306 C 1657.329956 264.018188 1669.7052 266.202576 1676.008301 267.617188 C 1682.311646 269.031982 1692.681274 271.702209 1699.052002 273.550842 C 1705.422729 275.39978 1716.667725 279.189148 1724.041138 281.97168 C 1731.414429 284.754456 1743.289307 289.832642 1750.429688 293.256836 C 1757.57019 296.680725 1768.701416 302.503296 1775.166138 306.195801 C 1781.630859 309.888245 1792.340576 316.54071 1798.965698 320.979248 C 1805.590576 325.417603 1816.739746 333.633301 1823.741333 339.236206 C 1830.74292 344.839111 1843.69751 356.636902 1852.529541 365.453491 C 1861.36145 374.270325 1873.257202 387.334045 1878.9646 394.48407 C 1884.671997 401.634094 1893.501953 413.784485 1898.586548 421.484619 C 1903.671021 429.184692 1910.886108 441.335083 1914.619507 448.485107 C 1918.353027 455.635132 1923.539917 466.257935 1926.145874 472.090759 C 1928.751831 477.923645 1932.949951 488.723938 1935.474609 496.091248 C 1937.999634 503.458557 1941.370972 514.661438 1942.966797 520.986511 C 1944.5625 527.311584 1946.750244 537.436768 1947.828613 543.486938 C 1948.907104 549.537109 1950.317505 559.552429 1950.963257 565.743225 C 1951.609009 571.934021 1952.126099 585.659119 1952.112427 596.243774 C 1952.097778 607.433228 1951.407104 621.340942 1950.46228 629.471008 C 1949.568481 637.16156 1947.947998 647.961792 1946.861084 653.471436 C 1945.774414 658.981323 1943.579102 668.439514 1941.982544 674.489685 C 1940.386108 680.539795 1937.436157 690.212646 1935.427002 695.984436 C 1933.418213 701.756287 1930.069824 710.574585 1927.986206 715.580261 C 1925.902954 720.586243 1921.021973 730.941895 1917.139893 738.592896 C 1913.25769 746.243958 1906.844971 757.676025 1902.889282 763.997681 C 1898.93396 770.319092 1892.002197 780.466309 1887.485718 786.546753 C 1882.969238 792.627197 1875.222534 802.302368 1870.270996 808.047119 C 1865.319336 813.79187 1855.23877 824.361816 1847.869751 831.535767 C 1840.500732 838.709839 1829.882568 848.235168 1824.274048 852.703247 C 1818.665527 857.171265 1809.665405 863.973267 1804.273682 867.818665 C 1798.881958 871.66394 1789.295654 877.944336 1782.970581 881.775024 C 1776.645508 885.605713 1765.476074 891.741089 1758.14978 895.409302 C 1750.823242 899.077393 1739.455566 904.287476 1732.887817 906.987122 C 1726.320068 909.68689 1715.326416 913.724121 1708.457153 915.958862 C 1701.588135 918.193604 1689.664307 921.569946 1681.960083 923.46167 C 1674.255859 925.353455 1661.993164 927.805542 1654.710083 928.910889 C 1647.426636 930.016235 1635.665039 931.387146 1628.572388 931.957458 C 1621.479858 932.527771 1608.879517 932.932495 1600.571777 932.856812 Z M 2532.717773 501.843811 C 2524.258789 487.812012 2519.530029 480.531616 2516.752197 476.611877 C 2513.974121 472.692383 2508.686523 465.884583 2505.001709 461.483643 C 2501.31665 457.082458 2493.981689 449.392822 2488.701172 444.395447 C 2483.420654 439.39801 2475.019287 432.423767 2470.031738 428.896851 C 2465.043945 425.370178 2457.47998 420.577087 2453.223145 418.245789 C 2448.966064 415.914673 2441.658203 412.395081 2436.98291 410.424805 C 2432.307861 408.454346 2423.757568 405.540222 2417.982666 403.948608 C 2412.20752 402.357056 2402.699707 400.364075 2396.85376 399.519592 C 2391.008301 398.675049 2379.758057 397.992432 2371.853271 398.002441 C 2363.948975 398.012451 2352.881836 398.674561 2347.259766 399.473938 C 2341.637939 400.273254 2333.380859 401.860901 2328.911133 403.002075 C 2324.441406 404.143433 2317.308838 406.345398 2313.061523 407.895447 C 2308.813721 409.445557 2301.426758 412.625061 2296.645508 414.96106 C 2291.864258 417.296997 2284.24585 421.684326 2279.716064 424.710999 C 2275.186279 427.737671 2267.743164 433.355164 2263.17627 437.194641 C 2258.609131 441.034058 2251.261963 448.295166 2246.849121 453.330444 C 2242.436279 458.365662 2235.95752 466.769897 2232.45166 472.006531 C 2228.946045 477.242981 2223.624756 486.468262 2220.626709 492.506958 C 2217.628662 498.54541 2213.5 507.986267 2211.451904 513.486328 C 2209.403809 518.98645 2206.219482 529.449524 2204.375977 536.737793 C 2202.532471 544.026001 2200.226318 555.726196 2199.251221 562.738281 C 2197.957764 572.041687 2197.478516 581.974487 2197.478516 599.487976 C 2197.478516 612.935974 2198.033447 627.826904 2198.740967 633.356079 C 2199.435303 638.783142 2200.930908 647.783325 2202.064697 653.356445 C 2203.198486 658.929565 2206.125977 669.529358 2208.570557 676.911804 C 2211.014893 684.294556 2214.954346 694.419739 2217.324707 699.412231 C 2219.695068 704.405029 2224.157959 712.540161 2227.241943 717.490234 C 2230.325928 722.440308 2235.800293 730.159424 2239.407227 734.643921 C 2243.01416 739.128113 2249.90625 746.48761 2254.722412 750.998169 C 2259.539063 755.509033 2268.204834 762.375366 2273.97998 766.257324 C 2279.754883 770.138916 2289.152832 775.53064 2294.864014 778.238708 C 2300.575195 780.946777 2309.800049 784.650696 2315.364502 786.469849 C 2320.928467 788.28894 2330.206055 790.719177 2335.980957 791.870605 C 2341.756104 793.021973 2350.531494 794.416504 2355.481445 794.969727 C 2360.431396 795.522705 2371.136963 795.979004 2379.27124 795.983398 C 2387.405762 795.988037 2398.430664 795.51001 2403.771729 794.921143 C 2409.112549 794.332275 2418.183105 792.949219 2423.927979 791.847351 C 2429.673096 790.745544 2439.607178 788.12561 2446.003906 786.025024 C 2452.400635 783.924622 2462.060059 780.052979 2467.469482 777.421265 C 2472.878906 774.789673 2481.170166 770.078369 2485.894531 766.951416 C 2490.618896 763.824341 2497.975098 758.262756 2502.242188 754.592041 C 2506.509277 750.921509 2513.286865 743.969238 2517.303955 739.143005 C 2521.320801 734.316772 2526.698242 727.013123 2529.253906 722.912964 C 2531.809326 718.812744 2536.056641 710.915894 2538.692627 705.364014 L 2543.485107 695.270081 L 2601.768799 732.880676 C 2642.446045 759.1297 2659.9375 770.944336 2659.671143 771.991272 C 2659.461182 772.816284 2656.341797 778.441345 2652.73877 784.491516 C 2649.135986 790.541687 2642.825439 800.216919 2638.71582 805.991943 C 2634.606201 811.766968 2626.975586 821.442139 2621.759277 827.49231 C 2616.542725 833.54248 2608.013916 842.563293 2602.805908 847.538452 C 2597.598389 852.513794 2588.645752 860.332031 2582.911621 864.912476 C 2577.177246 869.49292 2567.427979 876.58252 2561.246338 880.667175 C 2555.064941 884.751953 2544.28418 891.081299 2537.288818 894.732544 C 2530.293945 898.383667 2520.174072 903.305908 2514.800293 905.670837 C 2509.427002 908.035767 2499.883789 911.745239 2493.59375 913.914185 C 2487.303223 916.08313 2477.05542 919.214172 2470.820068 920.871948 C 2464.584961 922.529663 2453.633301 925.007874 2446.483154 926.37915 C 2439.333252 927.750244 2427.407959 929.600464 2419.982666 930.490723 C 2412.06958 931.439636 2396.135498 932.24408 2381.481934 932.434387 C 2367.731689 932.613098 2353.781494 932.573914 2350.481445 932.347473 C 2347.181152 932.121033 2338.856201 931.265808 2331.980957 930.446899 C 2325.105957 929.628052 2314.305664 928.042969 2307.980469 926.924561 C 2301.655518 925.805969 2290.328125 923.342163 2282.808838 921.449463 C 2275.289795 919.556702 2264.489502 916.479248 2258.80835 914.610596 C 2253.127441 912.741882 2243.529297 909.258789 2237.479248 906.870178 C 2231.428955 904.481689 2219.72876 899.225769 2211.47876 895.19043 C 2203.228516 891.154907 2191.09668 884.639038 2184.519287 880.710632 C 2177.94165 876.782227 2167.633057 870.041382 2161.611328 865.730713 C 2155.5896 861.420227 2145.895996 853.993896 2140.069824 849.227966 C 2134.243896 844.462158 2123.390869 834.450928 2115.951904 826.981079 C 2108.513184 819.51123 2097.898193 807.763672 2092.363281 800.87561 C 2086.828369 793.987549 2078.43457 782.533203 2073.710693 775.421509 C 2068.986572 768.309814 2062.165283 757.080078 2058.552246 750.466675 C 2054.939209 743.853027 2049.519287 732.748352 2046.508057 725.789185 C 2043.496948 718.830322 2039.19812 707.815979 2036.954834 701.313171 C 2034.71167 694.81012 2031.529175 684.314575 2029.882935 677.989502 C 2028.23645 671.664429 2025.797729 660.280884 2024.463623 652.692871 C 2023.129395 645.104797 2021.500244 632.279602 2020.843262 624.192322 C 2020.105225 615.10498 2019.876221 601.466309 2020.244141 588.487793 C 2020.611084 575.541016 2021.603271 562.483398 2022.831543 554.439026 C 2023.927246 547.26239 2026.163452 535.562195 2027.800659 528.438538 C 2029.437866 521.31488 2032.661133 509.701111 2034.963623 502.630188 C 2037.266113 495.559265 2041.561157 483.943298 2044.507935 476.8172 C 2047.454834 469.690857 2052.870117 458.150574 2056.542236 451.172424 C 2060.213867 444.194275 2065.90332 434.209961 2069.185303 428.984741 C 2072.467041 423.759521 2078.217285 415.209595 2081.963623 409.984375 C 2085.709717 404.759155 2092.483154 395.984131 2097.016113 390.484009 C 2101.548828 384.983887 2111.607178 374.156311 2119.367432 366.422729 C 2127.127686 358.689209 2138.571777 348.224182 2144.798828 343.166931 C 2151.025635 338.109741 2160.47583 330.889832 2165.799072 327.122681 C 2171.122559 323.35553 2181.103027 316.891052 2187.978271 312.756714 C 2194.853271 308.622559 2205.928711 302.509888 2212.590332 299.172668 C 2219.251953 295.835693 2230.052246 290.861755 2236.59082 288.119263 C 2243.129395 285.377014 2253.879395 281.334717 2260.479736 279.136414 C 2267.079834 276.938354 2277.655029 273.767639 2283.97998 272.090637 C 2290.305176 270.41333 2301.330566 267.906738 2308.480469 266.519958 C 2315.630615 265.13324 2326.430908 263.308472 2332.480957 262.464966 C 2338.777588 261.587036 2355.454102 260.663879 2371.481689 260.305725 C 2393.843994 259.806213 2402.943604 260.017395 2416.672119 261.355103 C 2426.126465 262.276489 2438.72583 263.923706 2444.670654 265.016052 C 2450.615723 266.108337 2460.020264 268.096191 2465.570068 269.433594 C 2471.119629 270.771057 2480.590576 273.459045 2486.616211 275.407104 C 2492.642334 277.355164 2501.985107 280.744385 2507.378174 282.938721 C 2512.77124 285.133118 2522.426514 289.565796 2528.834473 292.789246 C 2535.242188 296.012451 2544.76001 301.296021 2549.985107 304.529968 C 2555.210449 307.76416 2564.885254 314.444946 2571.485596 319.376465 C 2578.638184 324.720764 2589.780273 334.632324 2599.068359 343.913025 C 2607.638916 352.476685 2617.948486 363.758423 2621.978516 368.983582 C 2626.008301 374.208801 2632.986084 384.108887 2637.484131 390.984009 C 2641.982422 397.859131 2646.958008 405.893982 2648.541016 408.839355 C 2651.419189 414.194153 2651.419189 414.194153 2648.953125 416.023804 C 2647.59668 417.029907 2620.888916 436.750977 2589.602295 459.848633 L 2532.717773 501.843811 Z M 5259.324707 623.988464 L 4781.727051 623.988464 L 4782.371582 633.824829 C 4782.726563 639.234863 4783.70752 647.672485 4784.552734 652.575195 C 4785.397461 657.477844 4787.240723 665.76416 4788.649414 670.98938 C 4790.057617 676.214539 4792.683594 684.315796 4794.484375 688.992126 C 4796.285645 693.668762 4799.800293 701.543884 4802.29541 706.492493 C 4804.790039 711.441284 4809.044434 718.865234 4811.749512 722.990356 C 4814.45459 727.115417 4820.044434 734.540649 4824.170898 739.490662 C 4828.297852 744.440674 4834.791504 751.2323 4838.601563 754.583008 C 4842.411621 757.933594 4848.928223 763.17395 4853.083496 766.227966 C 4857.23877 769.282227 4864.625977 774.067261 4869.499023 776.861694 C 4874.372559 779.65625 4881.773438 783.373535 4885.945313 785.122864 C 4890.116699 786.871948 4897.883789 789.776245 4903.205566 791.576843 C 4908.527832 793.377441 4917.214844 795.789307 4922.51123 796.936829 C 4927.807129 798.08429 4937.851074 799.691284 4944.82959 800.507446 C 4951.808594 801.323853 4964.561523 801.991821 4973.168945 801.991821 C 4981.777344 801.991821 4993.47998 801.522827 4999.175781 800.949829 C 5004.871582 800.376831 5014.76709 798.834839 5021.165039 797.523254 C 5027.562988 796.211914 5036.974121 793.73999 5042.077637 792.030029 C 5047.181152 790.320251 5055.495117 786.934937 5060.553223 784.507385 C 5065.611328 782.079834 5073.750488 777.408081 5078.641113 774.125854 C 5083.531738 770.843262 5091.02832 764.925964 5095.299805 760.975952 C 5099.571289 757.026123 5105.694824 750.575806 5108.908203 746.642395 C 5112.12207 742.708984 5117.086914 735.911499 5119.941895 731.536621 C 5122.796875 727.162048 5127.022949 719.653076 5129.333496 714.850037 C 5131.644043 710.047241 5133.830078 706.088623 5134.191895 706.053711 C 5134.553711 706.018555 5161.554688 720.460754 5194.193359 738.146851 C 5226.832031 755.833252 5253.716309 770.450439 5253.935547 770.629639 C 5254.154785 770.808838 5252.839355 773.776245 5251.011719 777.223511 C 5249.18457 780.670898 5244.855469 788.133911 5241.392578 793.808105 C 5237.929199 799.4823 5231.303223 809.157227 5226.668457 815.308472 C 5222.033691 821.459595 5214.432617 830.66394 5209.776367 835.762634 C 5205.120605 840.861206 5197.311523 848.695374 5192.42334 853.171631 C 5187.535156 857.647949 5180.160156 863.98645 5176.035156 867.257385 C 5171.910156 870.528198 5163.584961 876.49231 5157.534668 880.511047 C 5151.484863 884.529785 5141.948242 890.309326 5136.343262 893.354431 C 5130.737305 896.399536 5120.612305 901.341553 5113.842773 904.33667 C 5107.072266 907.331909 5096.133789 911.618896 5089.533691 913.863403 C 5082.933105 916.107788 5072.358398 919.289246 5066.033203 920.933228 C 5059.708008 922.577026 5048.45752 925.033997 5041.032715 926.392944 C 5033.60791 927.751831 5021.457031 929.592407 5014.032227 930.483154 C 5005.859863 931.463562 4990.072754 932.234314 4974.03125 932.435974 C 4959.456055 932.619324 4945.055664 932.590637 4942.030762 932.372375 C 4939.005859 932.154114 4930.230957 931.276917 4922.530273 930.422974 C 4914.830078 929.569092 4902.45459 927.755249 4895.029785 926.392212 C 4887.60498 925.029114 4875.229492 922.297607 4867.529297 920.322144 C 4859.829102 918.346558 4847.744629 914.750854 4840.674805 912.33136 C 4833.60498 909.911987 4822.804688 905.834778 4816.674316 903.270874 C 4810.543945 900.70697 4800.038086 895.813354 4793.329102 892.395874 C 4786.619629 888.978638 4776.269043 883.253784 4770.328613 879.67395 C 4764.387695 876.09436 4755.274902 870.155151 4750.07666 866.475708 C 4744.879395 862.796509 4736.329102 856.362427 4731.07666 852.177856 C 4725.824219 847.993225 4714.303223 837.352051 4705.474609 828.530762 C 4696.645996 819.709473 4685.476563 807.541992 4680.65332 801.491821 C 4675.830566 795.44165 4668.152344 784.866516 4663.591309 777.991394 C 4659.030762 771.116272 4652.521973 760.471313 4649.12793 754.335938 C 4645.733398 748.200806 4640.515625 737.743286 4637.532715 731.097656 C 4634.549805 724.451782 4629.87793 712.554321 4627.150391 704.658691 C 4624.42334 696.763306 4620.615723 684.034058 4618.689941 676.371277 C 4616.76416 668.708801 4614.268066 656.375549 4613.143555 648.96405 C 4612.018555 641.55249 4610.631348 629.685852 4610.061035 622.59314 C 4609.491211 615.500732 4609.024414 604.653381 4609.024414 598.487976 C 4609.024414 592.322571 4609.490234 581.47522 4610.05957 574.382751 C 4610.629395 567.2901 4611.961914 555.798706 4613.020508 548.84613 C 4614.07959 541.893372 4616.329102 530.419312 4618.019043 523.347839 C 4619.708496 516.276672 4622.411133 506.214966 4624.024902 500.988525 C 4625.638184 495.762146 4629.24707 485.635742 4632.044922 478.485657 C 4634.843262 471.335632 4639.994141 459.635254 4643.492188 452.485168 C 4646.990234 445.335144 4653.043457 434.146729 4656.942871 427.622192 C 4660.842773 421.097351 4666.901855 411.647278 4670.407715 406.621765 C 4673.913574 401.596008 4680.549805 392.765564 4685.154297 386.998352 C 4689.758789 381.231384 4699.336426 370.5271 4706.438477 363.211243 C 4713.540039 355.895447 4723.665039 346.169434 4728.938965 341.597595 C 4734.212402 337.02594 4743.112305 329.82074 4748.716797 325.586304 C 4754.321777 321.351807 4764.634277 314.300171 4771.633789 309.915588 C 4778.634277 305.531189 4790.923828 298.626526 4798.944336 294.572021 C 4806.96582 290.517273 4819.938965 284.666077 4827.774414 281.569092 C 4835.609375 278.472351 4847.53418 274.336792 4854.274902 272.379456 C 4861.014648 270.421875 4872.732422 267.530273 4880.314941 265.953552 C 4887.896484 264.376892 4901.171387 262.323608 4909.81543 261.390747 C 4922.296875 260.043518 4930.674805 259.816467 4950.530762 260.28717 C 4968.109375 260.703918 4979.347168 261.478638 4988.385254 262.896851 C 4995.454102 264.005981 5006.929199 266.296814 5013.885742 267.987549 C 5020.841309 269.677979 5031.707031 272.791809 5038.032715 274.90686 C 5044.35791 277.022095 5055.326172 281.261475 5062.408203 284.327454 C 5069.489258 287.393433 5080.289063 292.667908 5086.408691 296.048584 C 5092.527344 299.42926 5102.483887 305.493103 5108.533691 309.523743 C 5114.583984 313.554321 5124.469727 320.812012 5130.501953 325.651978 C 5136.535156 330.491882 5146.902344 339.859009 5153.541504 346.467773 C 5160.180176 353.076294 5169.292969 362.927063 5173.791016 368.358582 C 5178.289063 373.789856 5184.796875 382.23114 5188.25293 387.117004 C 5191.708496 392.002808 5197.569336 400.834045 5201.277344 406.742371 C 5204.985352 412.650452 5210.921387 423.119873 5214.46875 430.007446 C 5218.015625 436.89502 5223.151367 447.747559 5225.881348 454.124146 C 5228.611816 460.500488 5232.941406 471.740417 5235.503418 479.101685 C 5238.06543 486.463135 5241.710449 498.336182 5243.604004 505.486206 C 5245.49707 512.63623 5248.143066 523.661621 5249.483887 529.986633 C 5250.824219 536.311707 5252.826172 547.787048 5253.932129 555.487122 C 5255.038086 563.187256 5256.394531 574.662537 5256.946777 580.98761 C 5257.499023 587.312683 5258.260254 599.575378 5258.637695 608.238159 L 5259.324707 623.988464 Z M 6188.981445 404.984253 L 6071.052246 404.984253 L 6071.052246 348.483215 L 6071.052246 291.982117 L 6086.001465 291.982117 C 6094.223145 291.982117 6106.098633 291.307312 6112.391602 290.482361 C 6118.684082 289.657349 6128.21582 287.843628 6133.57373 286.451477 C 6138.932129 285.059387 6147.185547 282.318359 6151.915527 280.360352 C 6156.645508 278.402527 6163.480469 275.06897 6167.104004 272.952698 C 6170.727539 270.836487 6176.391113 267.076111 6179.689453 264.596375 C 6182.988281 262.116577 6189.166992 256.446045 6193.419434 251.995056 C 6197.671875 247.544006 6203.635254 240.091248 6206.671387 235.433228 C 6209.70752 230.775146 6213.904785 223.255249 6215.998047 218.722168 C 6218.091309 214.189392 6221.196289 206.132324 6222.897949 200.817993 C 6224.599121 195.50354 6226.684082 188.078247 6227.530762 184.317749 C 6228.376953 180.556885 6229.785156 173.204956 6230.65918 167.979736 C 6231.874023 160.721313 6232.366699 148.156128 6232.748535 114.72876 L 6233.248047 70.977905 L 6247.401855 70.953491 C 6255.186523 70.939819 6272.083496 70.504272 6284.950195 69.985474 C 6297.817383 69.466431 6313.618652 68.355835 6320.065918 67.517212 C 6326.512695 66.678223 6336.910156 64.683594 6343.172363 63.084473 C 6349.434082 61.485107 6355.345215 59.858765 6356.307617 59.470093 C 6357.967773 58.799927 6358.057617 64.2854 6358.057617 166.372803 L 6358.057617 273.981812 L 6479.060059 273.981812 L 6600.0625 273.981812 L 6600.0625 339.483032 L 6600.0625 404.984253 L 6479.030273 404.984253 L 6357.998047 404.984253 L 6358.340332 561.737244 C 6358.650879 704.106689 6358.837402 719.270264 6360.374512 726.990417 C 6361.305176 731.665527 6363.23584 739.305603 6364.665527 743.968262 C 6366.095215 748.630981 6368.966797 755.831299 6371.047363 759.968628 C 6373.12793 764.106079 6376.987305 770.360352 6379.623535 773.867554 C 6382.260254 777.37439 6387.217773 782.553467 6390.640625 785.37677 C 6394.063477 788.200073 6399.724609 791.933838 6403.221191 793.674072 C 6406.718262 795.414307 6413.135254 797.885315 6417.481934 799.165161 C 6424.133789 801.123657 6427.645996 801.491821 6439.676758 801.491821 C 6451.208984 801.491821 6455.637207 801.061401 6462.604004 799.263062 C 6467.353027 798.03717 6475.361328 795.069336 6480.399414 792.667969 C 6485.437988 790.266541 6493.160645 785.608276 6497.560547 782.316406 C 6501.960449 779.024597 6509.385742 772.298645 6514.060547 767.370117 C 6518.73584 762.441284 6525.315918 754.377197 6528.682617 749.449829 C 6532.049316 744.522217 6536.099609 738.134644 6537.682617 735.255005 C 6539.265625 732.375244 6540.924316 730.012695 6541.368652 730.004883 C 6541.812988 729.99707 6567.913574 746.478821 6599.370117 766.631104 C 6630.82666 786.783569 6656.704102 803.386902 6656.875977 803.527527 C 6657.047852 803.668152 6655.175781 807.767822 6652.71582 812.637817 C 6650.255859 817.507813 6645.691406 825.5354 6642.573242 830.477173 C 6639.455078 835.418762 6633.610352 843.519043 6629.584961 848.477478 C 6625.55957 853.435913 6617.832031 861.831726 6612.414063 867.134827 C 6606.995605 872.437866 6598.697266 879.727905 6593.972168 883.334839 C 6589.248047 886.941833 6581.733398 892.15625 6577.273438 894.922729 C 6572.812988 897.688965 6564.192383 902.453369 6558.117188 905.51001 C 6552.041504 908.566895 6543.115234 912.595276 6538.281738 914.462036 C 6533.448242 916.328735 6524.333984 919.415588 6518.026855 921.321533 C 6511.720215 923.227539 6501.806152 925.745056 6495.995117 926.916016 C 6490.184082 928.086914 6480.508789 929.726685 6474.494629 930.559937 C 6468.474121 931.394226 6453.223145 932.252502 6440.559082 932.46991 C 6427.90918 932.687195 6413.283691 932.438782 6408.058594 931.91803 C 6402.833496 931.397278 6392.933594 930.033325 6386.058105 928.887085 C 6379.183105 927.740845 6369.283203 925.700256 6364.057617 924.352295 C 6358.83252 923.004517 6349.83252 920.315674 6344.057617 918.377136 C 6338.282227 916.438477 6326.807129 911.557251 6318.557129 907.530029 C 6310.306641 903.502563 6299.161133 897.256592 6293.788574 893.649963 C 6288.416016 890.043335 6280.540527 884.273193 6276.288086 880.827454 C 6272.035645 877.381714 6264.658691 870.653076 6259.89502 865.874756 C 6255.131348 861.096497 6248.419434 853.655762 6244.979492 849.339783 C 6241.539551 845.023804 6235.723145 836.949097 6232.054199 831.395996 C 6228.385254 825.842773 6222.819336 816.286316 6219.685059 810.159241 C 6216.55127 804.032166 6211.953125 793.95874 6209.467285 787.77356 C 6206.981445 781.588379 6203.37793 771.126282 6201.459473 764.524048 C 6199.540527 757.921875 6196.879395 747.113403 6195.545898 740.50531 C 6194.211914 733.897034 6192.36084 723.540405 6191.432129 717.490234 C 6189.91748 707.622375 6189.70459 690.973389 6189.362305 555.737183 L 6188.981445 404.984253 Z M 424.944672 930.994263 L 424.944672 791.081726 L 596.697937 790.686951 C 766.483887 790.296814 768.622375 790.267517 783.388245 788.127319 C 791.603638 786.936646 804.203979 784.646545 811.388794 783.03833 C 818.57373 781.430176 829.822876 778.485046 836.386841 776.49353 C 842.950806 774.502075 853.52594 770.822021 859.887268 768.31543 C 866.248474 765.808777 876.853271 761.133667 883.453369 757.926025 C 890.053528 754.71875 900.85376 748.88269 907.453857 744.95752 C 914.053955 741.032471 923.954163 734.608521 929.454285 730.682373 C 934.954407 726.756042 944.629639 719.206299 950.954712 713.904968 C 957.279724 708.603577 967.882141 698.650024 974.51532 691.785645 C 981.148499 684.921265 990.320068 674.621521 994.896667 668.897034 C 999.473206 663.172791 1007.67157 651.781494 1013.115173 643.583313 C 1018.73053 635.126831 1026.900513 620.848999 1031.998413 610.582703 C 1036.940552 600.630615 1042.82605 587.551453 1045.077271 581.518433 C 1047.328491 575.485107 1050.69104 565.595764 1052.549805 559.541931 C 1054.408325 553.488342 1057.073975 543.349243 1058.473633 537.010986 C 1059.873047 530.672485 1061.928223 519.636353 1063.040649 512.486328 C 1064.478271 503.245667 1065.231445 492.111206 1065.644775 473.985596 C 1066.104004 453.844604 1065.87085 445.073669 1064.5354 432.253113 C 1063.605469 423.325684 1061.52417 409.600342 1059.910156 401.752502 C 1058.296143 393.904968 1055.390137 382.049011 1053.452637 375.406555 C 1051.515015 368.763855 1047.901123 357.963623 1045.421631 351.406128 C 1042.942017 344.848389 1037.755371 332.958008 1033.895996 324.982727 C 1030.036377 317.007507 1023.494507 304.838318 1019.358337 297.939758 C 1015.22229 291.041199 1007.653992 279.790955 1002.540039 272.93927 C 997.426025 266.087585 989.416138 256.206543 984.740112 250.981323 C 980.064026 245.756165 971.56189 236.954224 965.846436 231.421387 C 960.130981 225.888367 950.5047 217.425781 944.454529 212.615356 C 938.404419 207.804993 928.951599 200.796265 923.448059 197.040405 C 917.944641 193.284668 907.841553 187.022827 900.996826 183.125366 C 894.1521 179.227783 883.527222 173.767944 877.386292 170.99231 C 871.2453 168.216553 861.547974 164.186768 855.83667 162.037231 C 850.125488 159.887573 840.073059 156.500244 833.497986 154.509766 C 826.922913 152.519287 814.997742 149.57312 806.997498 147.962769 C 798.997314 146.352417 787.276489 144.280396 780.951416 143.358154 C 770.546692 141.841309 749.362 141.64502 558.554871 141.297119 L 347.658508 140.912842 L 348.332855 212.447144 C 348.703705 251.790955 349.440094 329.65741 349.969238 385.483643 C 350.498413 441.309937 351.384186 538.286865 351.937592 600.988037 C 352.491058 663.689392 353.056213 736.928101 353.193542 763.741089 C 353.417542 807.45166 353.256042 813.422485 351.632111 821.492188 C 350.635986 826.442261 348.719635 833.775757 347.373535 837.78894 C 346.027496 841.801941 343.380249 848.343079 341.490723 852.324829 C 339.601227 856.306641 335.786835 863.039307 333.014252 867.286438 C 330.24173 871.533447 324.253845 878.901367 319.707916 883.659546 C 315.161926 888.417725 308.028992 894.855591 303.856964 897.965942 C 299.684875 901.076416 292.189087 905.729797 287.199493 908.306763 C 282.209869 910.883789 274.148193 914.290771 269.284515 915.877808 C 264.420837 917.464844 256.199615 919.490295 251.015137 920.378784 C 245.830582 921.267212 236.572235 921.994141 230.440948 921.994141 C 224.309677 921.994141 215.063156 921.267578 209.893143 920.379517 C 204.723114 919.491394 197.331192 917.731934 193.466614 916.469727 C 189.602036 915.20752 183.065048 912.824402 178.939972 911.174072 C 174.814896 909.523804 167.614746 906.391174 162.939667 904.212524 C 158.264587 902.034058 150.13974 897.800903 144.884506 894.805664 C 139.629227 891.810425 130.629059 886.151123 124.884132 882.229614 C 119.139145 878.307861 110.794754 872.173584 106.340927 868.597595 C 101.887169 865.021729 93.686089 857.762939 88.11628 852.467041 C 82.546532 847.171021 73.780922 837.810303 68.637268 831.665161 C 63.493557 825.52002 56.561356 816.667175 53.232437 811.992065 C 49.903454 807.316895 44.344082 798.766724 40.878258 792.991699 C 37.412491 787.216675 32.004978 777.091431 28.86161 770.491211 C 25.718239 763.890991 21.45998 753.990967 19.398905 748.490845 C 17.33783 742.990723 14.389959 734.335815 12.848121 729.257568 C 11.306221 724.179321 8.910606 714.954041 7.524411 708.757141 C 6.138215 702.559998 4.250179 692.539795 3.328774 686.489624 C 1.861217 676.853699 1.60285 662.06488 1.245605 567.237366 L 0.83776 458.985291 L 105.511383 458.985291 L 210.185013 458.985291 L 209.501038 391.984741 C 209.124878 355.13446 208.165741 252.420105 207.369705 163.730469 C 206.57373 75.040771 206.13739 1.914063 206.400085 1.226563 C 206.780594 0.230957 260.53833 -0.018555 470.664154 0.000977 C 616.146912 0.014648 744.765808 0.443848 757.450989 0.958008 C 770.101257 1.470703 786.526489 2.593506 793.951721 3.453491 C 801.376892 4.31311 813.977112 6.142944 821.952209 7.519409 C 829.927368 8.896118 843.877686 11.846436 852.95282 14.075928 C 862.027954 16.305298 877.365295 20.740356 887.035645 23.931885 C 896.705994 27.123291 911.287048 32.510376 919.437988 35.903076 C 927.588867 39.295898 941.727234 45.851685 950.856384 50.47168 C 959.985596 55.091675 973.64325 62.60791 981.206726 67.174805 C 988.770081 71.741577 1000.2453 79.169434 1006.707214 83.681274 C 1013.169006 88.193359 1023.609131 95.968872 1029.907471 100.960449 C 1036.205933 105.952271 1046.331177 114.476807 1052.407959 119.904175 C 1058.484863 125.331299 1068.428711 134.880981 1074.505615 141.125732 C 1080.582397 147.370239 1089.97168 157.654663 1095.370605 163.979736 C 1100.769531 170.30481 1108.900757 180.429932 1113.440063 186.480103 C 1117.97937 192.530273 1125.323364 202.929688 1129.760132 209.589905 C 1134.196777 216.250244 1141.248413 227.65448 1145.430542 234.932678 C 1149.612549 242.210693 1155.426514 252.961609 1158.350342 258.823547 C 1161.274292 264.685486 1166.644043 276.456909 1170.283447 284.981995 C 1173.922852 293.50708 1179.626709 308.655029 1182.959106 318.643982 C 1186.291382 328.632996 1190.749878 343.708435 1192.867065 352.144653 C 1194.984131 360.581116 1197.890747 374.008606 1199.326416 381.983826 C 1200.761841 389.959106 1202.613281 401.884094 1203.440796 408.484375 C 1204.268188 415.084595 1205.397339 426.559631 1205.950073 433.984863 C 1206.502563 441.410034 1206.954712 455.810181 1206.954712 465.985413 C 1206.954712 476.160706 1206.501587 490.560852 1205.947754 497.986023 C 1205.393799 505.411255 1204.234741 517.111389 1203.371826 523.986572 C 1202.509033 530.861694 1200.697876 542.561829 1199.347168 549.987061 C 1197.996338 557.412231 1195.308838 569.939087 1193.374878 577.824463 C 1191.440796 585.710144 1187.585327 599.210388 1184.806885 607.825073 C 1182.028564 616.439941 1177.036011 630.238586 1173.712524 638.488708 C 1170.388916 646.738892 1164.887695 659.339233 1161.487793 666.489258 C 1158.087646 673.639282 1152.025391 685.339722 1148.015991 692.489746 C 1144.00647 699.639771 1136.508423 711.917603 1131.353638 719.773682 C 1126.198853 727.629822 1118.153809 739.153503 1113.475708 745.381592 C 1108.797607 751.609741 1100.609253 761.832397 1095.279297 768.098633 C 1089.949463 774.364624 1078.80896 786.271118 1070.522583 794.557373 C 1062.236328 802.843628 1050.328491 813.985474 1044.060791 819.31665 C 1037.792969 824.648071 1027.667847 832.772217 1021.560425 837.370483 C 1015.452881 841.968689 1005.693176 848.923645 999.872131 852.825928 C 994.050964 856.728394 983.925781 863.123169 977.371704 867.036743 C 970.817505 870.950439 958.029785 877.848022 948.954651 882.36499 C 939.879517 886.881775 926.154175 893.172546 918.454041 896.344482 C 910.753967 899.516296 897.253723 904.536499 888.453491 907.500366 C 879.653259 910.464111 866.153015 914.490967 858.452942 916.44873 C 850.752808 918.406555 837.702515 921.323242 829.452393 922.930298 C 821.202209 924.537231 808.826965 926.560059 801.951843 927.425171 C 795.076721 928.290283 784.051453 929.440063 777.451355 929.980347 C 770.227234 930.571655 697.690063 930.968872 595.197876 930.978394 L 424.944672 930.994263 Z M 3433.001953 917.994019 L 3433.001953 273.981812 L 3481.75293 273.973022 C 3508.565918 273.96814 3536.803711 273.524231 3544.50415 272.986389 C 3552.204346 272.448547 3563.229492 271.283752 3569.004639 270.397949 C 3574.779541 269.511963 3583.662598 267.687012 3588.743652 266.342224 C 3593.825439 264.997253 3598.887939 263.63855 3599.993896 263.322632 C 3601.993896 262.751587 3602.005127 263.106812 3602.011963 327.616089 L 3602.018799 392.48407 L 3608.111328 381.483826 C 3611.461426 375.433655 3616.625977 366.825623 3619.587158 362.354553 C 3622.548584 357.883789 3628.009033 350.458557 3631.72168 345.854248 C 3635.43457 341.250183 3642.304688 333.656982 3646.989502 328.980652 C 3651.673584 324.30426 3658.98584 317.64447 3663.238281 314.180786 C 3667.490723 310.717346 3675.365967 304.936951 3680.738525 301.335571 C 3686.111328 297.734436 3697.482178 291.328796 3706.00708 287.100952 C 3714.532227 282.873047 3727.807373 277.296326 3735.507813 274.707886 C 3743.208008 272.119446 3754.342529 268.850586 3760.251465 267.443604 C 3766.160645 266.03656 3776.735596 263.989136 3783.751953 262.893433 C 3792.6875 261.498169 3804.148193 260.719299 3822.009277 260.293274 C 3842.245605 259.810608 3850.606689 260.026672 3862.510254 261.339722 C 3870.760254 262.249634 3881.7854 263.891479 3887.010742 264.98822 C 3892.23584 266.0849 3901.056885 268.313232 3906.612549 269.94043 C 3912.168945 271.567444 3921.891602 275.092651 3928.219482 277.774353 C 3934.547119 280.456055 3944.403809 285.437561 3950.123047 288.84436 C 3955.842529 292.25116 3963.625 297.362854 3967.418457 300.203491 C 3971.211426 303.044128 3978.31665 309.176331 3983.207275 313.830688 C 3988.098389 318.485046 3994.856445 325.71106 3998.225586 329.888123 C 4001.594482 334.065186 4007.023682 341.533142 4010.290283 346.483154 C 4013.556885 351.433228 4018.837891 360.883362 4022.025879 367.483582 C 4025.213379 374.083801 4029.327393 383.643799 4031.167725 388.728088 C 4033.008057 393.812439 4034.738525 397.9646 4035.013428 397.955322 C 4035.28833 397.946045 4037.631592 393.560974 4040.220215 388.210999 C 4042.809082 382.861084 4048.144043 373.533752 4052.075195 367.483582 C 4056.00708 361.433411 4062.52124 352.433228 4066.551758 347.483154 C 4070.582031 342.533142 4078.072754 334.368896 4083.197021 329.340271 C 4088.321533 324.311829 4096.114746 317.334656 4100.514648 313.835327 C 4104.914551 310.335999 4112.9375 304.616882 4118.342285 301.126099 C 4123.747559 297.635315 4134.997559 291.476013 4143.342773 287.438843 C 4151.687988 283.401611 4165.266113 277.860779 4173.516113 275.126099 C 4181.766113 272.391418 4193.673828 269.004395 4199.976563 267.599609 C 4206.279785 266.194519 4218.655273 264.018188 4227.477051 262.763306 C 4241.26709 260.801575 4247.656738 260.481506 4273.018066 260.481506 C 4291.470703 260.481506 4306.450684 260.975647 4313.018555 261.800659 C 4318.793945 262.526245 4328.918945 264.251648 4335.519043 265.634705 C 4342.119629 267.018005 4352.919434 269.942383 4359.519531 272.133606 C 4366.119629 274.324585 4376.943359 278.743347 4383.571777 281.952881 C 4390.200195 285.162415 4400.325684 290.951599 4406.072266 294.817871 C 4411.818848 298.684143 4420.233398 305.14032 4424.770996 309.1651 C 4429.308594 313.189575 4436.203125 320.082764 4440.091797 324.482727 C 4443.981445 328.882751 4450.477539 337.432922 4454.527832 343.483093 C 4458.578613 349.533264 4464.345703 359.43335 4467.34375 365.483521 C 4470.342773 371.533691 4474.405273 380.8078 4476.37207 386.09259 C 4478.339355 391.377563 4481.109375 399.702698 4482.527832 404.592896 C 4483.946289 409.483398 4486.199219 418.88446 4487.534668 425.48468 C 4488.869629 432.0849 4490.719727 442.660034 4491.645508 448.985107 C 4493.175781 459.439392 4493.362793 481.289429 4493.704102 689.239685 L 4494.07959 917.994019 L 4409.549316 917.994019 L 4325.019043 917.994019 L 4325.010254 720.240295 C 4325.004883 600.306091 4324.612793 516.977112 4324.01416 508.486267 C 4323.471191 500.786133 4322.110352 489.642639 4320.990234 483.722839 C 4319.870117 477.803284 4317.580566 469.027954 4315.902832 464.222473 C 4314.224121 459.416931 4311.266113 452.56012 4309.329102 448.985107 C 4307.39209 445.410095 4303.408691 439.507385 4300.477539 435.868164 C 4297.546387 432.228943 4292.309082 427.117493 4288.839355 424.509583 C 4285.370117 421.901611 4279.960449 418.46991 4276.817871 416.883423 C 4273.675781 415.297241 4267.822754 412.901184 4263.811035 411.558899 C 4259.799805 410.216553 4252.467773 408.422607 4247.517578 407.572205 C 4242.567383 406.722107 4232.89209 405.736511 4226.01709 405.382263 C 4218.76416 405.008423 4208.05957 405.230652 4200.516602 405.91156 C 4193.366699 406.557068 4183.016113 407.987732 4177.516113 409.091309 C 4172.016113 410.194824 4162.800781 412.669006 4157.037109 414.589661 C 4151.273926 416.510376 4142.499023 420.079529 4137.537109 422.520996 C 4132.574707 424.962708 4125.132324 429.182739 4120.998047 431.898865 C 4116.86377 434.615234 4109.844727 439.984924 4105.400391 443.831726 C 4100.956543 447.678223 4094.386719 454.348999 4090.800537 458.655457 C 4087.215088 462.961975 4081.927979 470.085632 4079.051514 474.485596 C 4076.174316 478.88562 4071.655762 486.98584 4069.009766 492.485962 C 4066.363281 497.986023 4062.775146 506.536255 4061.035889 511.486328 C 4059.296631 516.43634 4056.758545 525.096191 4055.395752 530.730103 C 4054.032959 536.363953 4051.962402 546.714294 4050.79541 553.73053 C 4048.699219 566.329407 4048.668457 568.663452 4048.306641 742.240723 L 4047.939941 917.994019 L 3963.475586 917.994019 L 3879.010498 917.994019 L 3879.008057 719.740234 C 3879.006592 597.137817 3878.623779 516.335022 3878.004639 507.986267 C 3877.454346 500.561035 3876.090576 489.642639 3874.974365 483.722839 C 3873.858154 477.803284 3871.571777 469.027954 3869.894043 464.222473 C 3868.21582 459.416931 3865.257813 452.56012 3863.320801 448.985107 C 3861.383789 445.410095 3857.400146 439.507385 3854.468994 435.868164 C 3851.537842 432.228943 3846.300293 427.117493 3842.831055 424.509583 C 3839.361816 421.901611 3833.943115 418.465515 3830.790283 416.873901 C 3827.637451 415.282349 3821.569336 412.84137 3817.306152 411.449707 C 3813.042969 410.057861 3805.493896 408.261169 3800.531494 407.45697 C 3795.568848 406.652771 3786.108887 405.712097 3779.508545 405.366394 C 3772.693115 405.009644 3761.891602 405.245056 3754.508057 405.91156 C 3747.358154 406.557068 3737.062012 407.982849 3731.628174 409.080078 C 3726.194092 410.177246 3717.418945 412.448792 3712.12793 414.127502 C 3706.836426 415.806519 3698.00708 419.352966 3692.506836 422.008545 C 3687.006836 424.664124 3679.131592 429.077026 3675.006592 431.81488 C 3670.881592 434.552734 3664.059082 439.740051 3659.846191 443.342163 C 3655.632813 446.944092 3649.051025 453.625122 3645.220459 458.188416 C 3641.389648 462.751709 3635.907227 470.085632 3633.037598 474.485596 C 3630.167969 478.88562 3625.638428 486.98584 3622.971436 492.485962 C 3620.304932 497.986023 3616.557129 507.038696 3614.644043 512.603027 C 3612.730957 518.167603 3610.019531 527.84259 3608.619141 534.103455 C 3607.21875 540.364563 3605.312988 550.437012 3604.383789 556.487183 C 3602.858154 566.421204 3602.657471 584.473022 3602.312744 742.740723 L 3601.931396 917.994019 L 3517.466553 917.994019 L 3433.001953 917.994019 Z M 5375.039063 917.994019 L 5375.039063 273.981812 L 5424.290039 273.97937 C 5451.37793 273.978149 5479.616211 273.525696 5487.041016 272.974426 C 5494.466309 272.422913 5505.331543 271.279114 5511.186523 270.432617 C 5517.041504 269.586182 5525.936523 267.795166 5530.952637 266.45282 C 5535.969238 265.110291 5541.191406 263.731323 5542.557617 263.388306 C 5545.041992 262.764771 5545.041992 262.764771 5545.061035 327.62439 L 5545.080566 392.48407 L 5549.921387 383.365723 C 5552.583984 378.350708 5557.959961 369.549744 5561.868164 363.807983 C 5565.776367 358.066406 5571.836914 350.019348 5575.334961 345.925781 C 5578.833008 341.832214 5585.260742 334.940735 5589.619141 330.611267 C 5593.977051 326.282104 5601.143555 319.832031 5605.543457 316.278503 C 5609.943359 312.724731 5618.268555 306.659424 5624.043945 302.799988 C 5629.818848 298.940491 5641.744141 292.251404 5650.544434 287.935181 C 5659.344238 283.619202 5671.944336 278.238953 5678.544922 275.979614 C 5685.14502 273.720276 5695.719727 270.557129 5702.04541 268.950195 C 5708.370605 267.343445 5718.927734 265.109558 5725.506836 263.986206 C 5732.084961 262.862671 5743.785156 261.429077 5751.507324 260.80011 C 5760.319336 260.082581 5774.667969 259.892639 5790.046875 260.289856 C 5803.842773 260.646057 5818.916504 261.601685 5824.547363 262.476929 C 5830.047852 263.331909 5841.072754 265.64032 5849.047852 267.606934 C 5857.023438 269.573242 5868.128418 272.901917 5873.726074 275.004028 C 5879.324219 277.105896 5888.775391 281.317383 5894.729492 284.363098 C 5900.683594 287.408813 5908.70459 291.999207 5912.552734 294.564209 C 5916.400879 297.128967 5922.699219 301.74231 5926.549316 304.815857 C 5930.399902 307.889404 5937.053223 313.964722 5941.334961 318.316345 C 5945.616699 322.668274 5952.591797 330.864197 5956.835449 336.529846 C 5961.078613 342.195496 5967.175293 351.567261 5970.383789 357.355713 C 5973.591797 363.144348 5978.46875 373.416321 5981.221191 380.182312 C 5983.973145 386.948303 5987.764648 398.086426 5989.645996 404.93396 C 5991.527344 411.781311 5993.975098 422.131592 5995.084961 427.934448 C 5996.194824 433.737244 5997.835449 443.434937 5998.730469 449.485107 C 6000.187988 459.336365 6000.396973 484.379578 6000.733398 689.239685 L 6001.108398 917.994019 L 5916.078125 917.994019 L 5831.047852 917.994019 L 5831.047852 712.024536 C 5831.047852 531.820679 5830.854492 504.643433 5829.50293 494.770386 C 5828.65332 488.563782 5826.842285 479.210815 5825.479004 473.985596 C 5824.115234 468.760376 5820.568848 459.504089 5817.597656 453.415894 C 5813.345215 444.702087 5810.637207 440.674927 5804.871582 434.490723 C 5800.842773 430.170044 5794.265625 424.489319 5790.255371 421.866455 C 5786.245117 419.243835 5779.296875 415.683716 5774.814453 413.955139 C 5770.33252 412.226624 5762.756836 409.959473 5757.979492 408.916748 C 5753.202637 407.874207 5743.725586 406.506042 5736.919922 405.876648 C 5729.85791 405.223328 5719.061035 405.003052 5711.769531 405.363464 C 5704.743164 405.710632 5694.207031 406.666687 5688.356445 407.487976 C 5682.505859 408.309265 5673.179688 410.171875 5667.631836 411.627014 C 5662.083496 413.082092 5653.681152 415.739868 5648.959961 417.532837 C 5644.237793 419.325867 5637.235352 422.373779 5633.398438 424.306152 C 5629.561523 426.238342 5622.174805 430.640015 5616.982422 434.087646 C 5610.949707 438.093811 5603.189941 444.7099 5595.478516 452.420715 C 5587.760742 460.138672 5581.152344 467.891235 5577.136719 473.938477 C 5573.684082 479.137573 5568.931641 487.237793 5566.57666 491.938843 C 5564.221191 496.639832 5560.702637 504.761108 5558.757324 509.986267 C 5556.811523 515.211487 5554.065918 523.761475 5552.655273 528.986633 C 5551.245117 534.211853 5549.098145 543.886841 5547.884277 550.487061 C 5545.677734 562.487305 5545.677734 562.487305 5545.333496 740.240662 L 5544.989258 917.994019 L 5460.01416 917.994019 L 5375.039063 917.994019 Z M 1607.467163 791.447693 C 1615.167236 791.215027 1625.29248 790.387634 1629.967651 789.609009 C 1634.6427 788.830688 1642.140015 787.248901 1646.628296 786.094116 C 1651.116699 784.939514 1658.369507 782.627441 1662.74585 780.956299 C 1667.121948 779.285156 1674.614014 775.905151 1679.394531 773.44519 C 1684.175171 770.985352 1691.547607 766.653076 1695.77771 763.818237 C 1700.008057 760.983276 1706.844116 755.863281 1710.969116 752.440613 C 1715.094238 749.017944 1720.962769 743.579102 1724.010132 740.354187 C 1727.057861 737.129028 1732.067261 731.340576 1735.142212 727.490417 C 1738.217529 723.640259 1743.08252 716.890137 1745.953979 712.490112 C 1748.825073 708.090149 1753.805908 699.089966 1757.022095 692.489746 C 1760.238403 685.889526 1764.450684 675.757507 1766.382813 669.974182 C 1768.314941 664.190613 1771.025269 654.740479 1772.405884 648.973816 C 1773.786499 643.207092 1775.637207 632.892212 1776.518311 626.052185 C 1777.470459 618.661682 1778.120361 606.276184 1778.120361 595.526978 C 1778.120361 584.538757 1777.468262 572.34491 1776.45874 564.462646 C 1775.5448 557.32605 1773.27356 545.522827 1771.411743 538.233154 C 1769.549927 530.943481 1766.221436 520.362671 1764.015381 514.720276 C 1761.80896 509.077576 1757.932251 500.416748 1755.400146 495.473572 C 1752.86792 490.530334 1747.954712 482.210876 1744.482056 476.985657 C 1741.009033 471.760437 1735.253296 464.07843 1731.691528 459.914063 C 1728.129639 455.749878 1721.672485 449.101807 1717.342285 445.140808 C 1713.011963 441.180054 1705.419067 435.026855 1700.468994 431.467468 C 1695.518921 427.908081 1686.068848 422.272461 1679.468506 418.944275 C 1672.868286 415.616089 1662.743164 411.320068 1656.96814 409.397949 C 1651.193115 407.475769 1641.071899 404.908813 1634.476685 403.693726 C 1624.674561 401.887512 1618.832397 401.484192 1602.476074 401.484192 C 1585.771484 401.484192 1580.61853 401.853333 1571.276367 403.718872 C 1565.12146 404.94812 1555.671265 407.352234 1550.275879 409.061523 C 1544.880249 410.770996 1535.515869 414.56427 1529.465698 417.491333 C 1523.415527 420.418152 1514.415405 425.499084 1509.465332 428.782104 C 1504.515259 432.065125 1496.566162 438.161682 1491.800659 442.329956 C 1487.034912 446.49823 1479.900024 453.63855 1475.944946 458.19696 C 1471.98999 462.755615 1465.452515 471.435486 1461.41748 477.485657 C 1457.382568 483.535828 1451.594116 493.661011 1448.554199 499.986084 C 1445.514648 506.311157 1441.213013 517.012756 1438.995239 523.767334 C 1436.77771 530.521851 1433.862793 541.546936 1432.518066 548.267761 C 1431.173096 554.988342 1429.598267 564.857178 1429.018188 570.19812 C 1428.438354 575.539063 1427.963745 586.919373 1427.963745 595.487915 C 1427.963745 604.056458 1428.438354 615.436768 1429.018188 620.77771 C 1429.598267 626.118591 1431.196045 636.113708 1432.568848 642.988831 C 1433.941406 649.863953 1436.889282 660.984741 1439.119507 667.70166 C 1441.349487 674.41864 1445.983398 685.668823 1449.416626 692.702148 C 1452.849976 699.735474 1458.850098 710.21521 1462.75061 715.990234 C 1466.650757 721.765259 1473.194336 730.31543 1477.29187 734.990601 C 1481.38916 739.66571 1488.425903 746.640686 1492.928833 750.490845 C 1497.431885 754.341064 1504.560669 759.868042 1508.770508 762.773071 C 1512.980347 765.678162 1521.15918 770.473145 1526.945435 773.428589 C 1532.731689 776.384155 1542.036255 780.390137 1547.622314 782.330566 C 1553.208374 784.271301 1562.208496 786.803589 1567.622681 787.958374 C 1573.036865 789.112915 1581.066772 790.465759 1585.466797 790.964294 C 1589.866821 791.46283 1599.76709 791.680359 1607.467163 791.447693 Z M 210.725616 598.987976 L 141.764267 598.987976 L 142.203003 634.238647 C 142.620193 667.755371 142.766678 670.005676 145.181702 679.989502 C 146.57869 685.764526 149.117447 694.089905 150.82341 698.489868 C 152.529373 702.889832 155.542252 709.640015 157.518723 713.490173 C 159.495148 717.340332 163.632614 724.315308 166.713058 728.990479 C 170.03801 734.036682 177.012314 742.1875 183.877014 749.049683 C 190.511902 755.682129 199.063156 763.023804 203.940445 766.275146 C 208.615524 769.391846 212.552429 771.952942 212.689026 771.966614 C 212.825684 771.980042 212.700623 740.828125 212.411133 702.739929 C 212.121689 664.651855 211.624008 625.726013 211.305206 616.238281 L 210.725616 598.987976 Z M 5089.320801 528.986633 C 5088.305176 518.055542 5086.936035 509.811707 5085.623535 503.614563 C 5084.311035 497.417419 5081.600098 487.456299 5079.600098 481.478638 C 5077.599609 475.501221 5073.755859 466.034058 5071.058105 460.44043 C 5068.359863 454.847046 5062.884277 445.368835 5058.88916 439.377747 C 5054.061523 432.138367 5047.92041 424.781067 5040.579102 417.442261 C 5033.886719 410.752197 5025.787598 403.897339 5020.032227 400.050354 C 5014.807129 396.55835 5006.931641 391.951538 5002.531738 389.812866 C 4998.131836 387.674377 4990.481934 384.627686 4985.531738 383.04248 C 4980.581055 381.457214 4973.092285 379.451538 4968.888672 378.585327 C 4964.685547 377.71936 4956.022949 376.552856 4949.638184 375.993225 C 4941.766113 375.30304 4934.29541 375.30304 4926.422852 375.993225 C 4920.038574 376.552856 4911.375977 377.711792 4907.172852 378.568726 C 4902.96875 379.425659 4895.616699 381.427917 4890.833984 383.018066 C 4886.050781 384.608398 4877.95752 388.00885 4872.848633 390.574829 C 4867.739746 393.140564 4860.402832 397.385254 4856.544434 400.007385 C 4852.685547 402.629517 4846.068848 407.757263 4841.839844 411.4021 C 4837.61084 415.046997 4830.665527 422.181885 4826.405762 427.257141 C 4822.146484 432.332458 4816.315918 440.085022 4813.449707 444.485046 C 4810.583008 448.88501 4805.748535 457.45697 4802.706543 463.533508 C 4799.663574 469.610291 4795.374023 479.803589 4793.17334 486.185791 C 4790.972656 492.567749 4788.059082 502.896301 4786.698242 509.137878 C 4785.337402 515.3797 4783.949707 522.399109 4783.614258 524.736572 C 4783.004395 528.986633 4783.004395 528.986633 4936.162598 528.986633 L 5089.320801 528.986633 Z M 536.787598 347.983215 L 700.246277 347.983215 L 699.628479 355.995056 C 699.259338 360.782532 697.770386 367.725281 695.929077 373.245422 C 694.234192 378.326538 691.042236 385.535156 688.835815 389.264526 C 686.629333 392.993835 682.039673 399.032532 678.636597 402.683472 C 675.233582 406.334656 669.785278 411.290771 666.529236 413.697327 C 663.273071 416.104126 657.411987 419.610779 653.504578 421.48999 C 649.597229 423.369385 642.586121 425.82135 637.924438 426.938782 C 631.897583 428.383667 626.27002 428.949829 618.448364 428.898315 C 612.398193 428.858276 604.748108 428.232788 601.447998 427.508118 C 598.147888 426.783508 593.195435 425.329163 590.442444 424.276611 C 587.689453 423.223877 582.611511 420.856628 579.158142 419.016052 C 575.704834 417.175415 569.889343 413.152893 566.234802 410.076904 C 562.5802 407.000916 557.207458 401.354065 554.295288 397.52832 C 551.38324 393.702576 547.389648 387.269104 545.420837 383.231445 C 543.452026 379.193726 541.020996 372.648682 540.018494 368.686707 C 539.016174 364.724976 537.879089 358.445801 537.491699 354.733337 L 536.787598 347.983215 Z M 780.657959 347.983215 L 944.212952 347.983215 L 943.508728 355.130554 C 943.121399 359.061523 941.683289 366.149048 940.312988 370.880859 C 938.942627 375.612366 936.163879 382.57489 934.137817 386.353088 C 932.111938 390.131226 927.963501 396.199219 924.91925 399.837708 C 921.875 403.476196 916.733582 408.588623 913.493896 411.198486 C 910.254089 413.808411 904.194641 417.70813 900.028442 419.864441 C 895.862305 422.020752 889.303467 424.78595 885.45343 426.009338 C 879.968689 427.752075 875.422607 428.312134 864.453064 428.596313 C 853.239441 428.886841 849.059448 428.595093 843.452637 427.13092 C 839.6026 426.125305 833.715759 424.168457 830.370972 422.782227 C 827.026062 421.395996 821.673401 418.588318 818.476318 416.543091 C 815.279114 414.497864 810.183716 410.498047 807.153137 407.65448 C 804.122559 404.810669 799.638428 399.784241 797.188599 396.484131 C 794.738708 393.184021 791.218628 387.478333 789.366028 383.804932 C 787.51355 380.131287 785.078369 373.83136 783.954407 369.804626 C 782.830627 365.777954 781.629089 359.220947 781.284485 355.233337 L 780.657959 347.983215 Z"/>
</svg>
